<svg id="logo" xmlns="http://www.w3.org/2000/svg" viewBox="0 0 474 106">
    <path d="M465.3273 80.1493c4.7898 0 8.6727 3.8829 8.6727 8.6727v6.272c0 4.7897-3.8829 8.6726-8.6727 8.6726H455.145c-4.7898 0-8.6727-3.8829-8.6727-8.6727v-6.272c0-4.7897 3.8829-8.6726 8.6727-8.6726h10.1824ZM397.5908 1c9.931 0 18.6402 1.492 26.1169 4.4988 7.538 3.0315 13.6381 7.2857 18.2557 12.762 2.4453 2.9002 4.6743 7.2534 6.7692 13.1123l.4157 1.1859c1.1464 3.3457-.6366 6.9872-3.9823 8.1335a6.4073 6.4073 0 0 1-2.048.3456l-14.8186.0573c-3.298.0118-6.3173-1.848-7.7906-4.7992-1.0577-2.1194-2.079-3.6217-3.004-4.4954-2.2299-2.1067-5.0076-3.748-8.3614-4.922-3.4086-1.193-7.2498-1.7951-11.5343-1.7951-5.7921 0-10.7772 1.0646-14.9872 3.1705-4.1014 2.0515-7.2238 5.062-9.4272 9.0893-2.2368 4.0883-3.3768 9.2576-3.3768 15.5403 0 4.7278.6653 8.8114 1.9755 12.2594 1.2948 3.4076 3.1205 6.2421 5.4824 8.5345 2.3644 2.2948 5.22 4.0257 8.5974 5.1997 3.4526 1.2001 7.375 1.8065 11.7767 1.8065 4.2981 0 8.1796-.6139 11.6557-1.8317 3.4158-1.1966 6.2176-2.859 8.4352-4.9828.8573-.821 1.7943-2.1878 2.7533-4.079l.2108-.4208c1.4592-2.9764 4.4873-4.8607 7.8019-4.855l14.4604.0235c3.5366.0058 6.3989 2.8775 6.393 6.4141a6.4074 6.4074 0 0 1-.3053 1.9434c-2.1366 6.6586-4.5536 11.5557-7.3482 14.7271-4.8564 5.5114-11.1246 9.7709-18.7642 12.7762-7.574 2.9795-16.0428 4.4628-25.3904 4.4628-8.7588 0-16.6324-1.2072-23.6125-3.6357-7.0328-2.4468-13.0355-5.984-17.9804-10.6113-4.95-4.632-8.725-10.1549-11.3095-16.542-2.572-6.3556-3.852-13.4248-3.852-21.189 0-7.7616 1.2702-14.8427 3.8218-21.2253 2.5705-6.43 6.3538-11.9479 11.3342-16.524 4.958-4.5557 10.962-8.055 17.986-10.4988C380.92 2.2071 388.8063 1 397.5907 1ZM334.8557 80.1493c4.7898 0 8.6727 3.8829 8.6727 8.6727v6.272c0 4.7897-3.8829 8.6726-8.6727 8.6726h-10.1824c-4.7898 0-8.6727-3.8829-8.6727-8.6727v-6.272c0-4.7897 3.8829-8.6726 8.6727-8.6726h10.1824ZM203.7638 2.335c2.95 0 5.5182 2.0151 6.2199 4.8804l11.753 47.9936c.144.5878.2833 1.1768.418 1.7668l2.5424 11.1301 11.2841-58.5217c.6682-3.465 3.6458-5.9912 7.1506-6.1068l.2513-.0042h24.0597c3.5632 0 6.6398 2.495 7.3756 5.9814l12.3067 58.3083 1.8017-9.637c.221-1.183.4605-2.3623.718-3.5378l.2638-1.1742 10.606-46.1108c.6688-2.9077 3.257-4.9682 6.2406-4.9682h14.8623c3.5366 0 6.4036 2.867 6.4036 6.4036 0 .4933-.057.985-.1699 1.4652L307.227 97.9532c-.8005 3.406-3.8394 5.8134-7.3382 5.8134h-25.4181c-3.5578 0-6.6312-2.4875-7.3726-5.9671l-12.186-57.1866-11.5729 57.1126c-.6956 3.433-3.6594 5.923-7.1386 6.037l-.2494.0041h-24.403c-3.3206 0-6.2466-2.1726-7.2307-5.409l-.0575-.206-.018-.0677-22.2891-87.7692c-.8705-3.4278 1.2026-6.9123 4.6304-7.7828a6.4036 6.4036 0 0 1 1.5762-.197h15.6043ZM185.097 80.1493c4.7898 0 8.6727 3.8829 8.6727 8.6727v6.272c0 4.7897-3.8829 8.6726-8.6727 8.6726h-10.1824c-4.7898 0-8.6727-3.8829-8.6727-8.6727v-6.272c0-4.7897 3.8829-8.6726 8.6727-8.6726h10.1824ZM114.2897 1.1383c9.8546 0 18.5408 1.4819 26.047 4.4669 7.573 3.0115 13.697 7.2457 18.3404 12.7191 2.769 3.3104 4.9599 7.4111 6.5931 12.3037l.2096.6424c1.2648 3.9665-.9254 8.2072-4.8918 9.472a7.5393 7.5393 0 0 1-2.289.3562h-13.4498c-3.3097-.0012-6.3301-1.886-7.7861-4.859-1.0808-2.2086-2.1126-3.7468-3.0236-4.598-2.1991-2.0547-4.9362-3.6248-8.2425-4.7085-3.394-1.1125-7.2273-1.6743-11.5073-1.6743-6.1873 0-11.327 1.1414-15.4536 3.3858-4.0727 2.215-7.1286 5.3197-9.2256 9.3675-2.14 4.1307-3.2242 9.1106-3.2242 14.9732 0 4.677.6473 8.7638 1.9246 12.2693 1.2524 3.437 3.0517 6.2795 5.4028 8.5614 2.3748 2.3049 5.2124 4.0554 8.5403 5.2594 3.381 1.2233 7.2027 1.841 11.4771 1.841 6.0113 0 10.964-.9031 14.866-2.6693 3.8006-1.7203 6.6136-4.0953 8.5136-7.1461.4735-.7604 1.0044-2.1006 1.5419-3.9655l.0697-.2482-22.039.0002c-4.0817 0-7.4056-3.244-7.5344-7.2942l-.0038-.244v-5.6038c0-4.1632 3.375-7.5381 7.5381-7.5381h44.362c4.1632 0 7.5382 3.375 7.5382 7.5381v3.3532c0 7.8111-1.43 14.7416-4.3109 20.7631-2.8745 6.0083-6.8875 11.0558-12.0194 15.1129-5.0732 4.0106-10.9562 7.023-17.6289 9.0368-6.6068 1.9939-13.6677 2.9885-21.1744 2.9885-8.552 0-16.2779-1.209-23.1682-3.64-6.94-2.4486-12.8695-5.981-17.761-10.596-4.8964-4.6197-8.6374-10.1413-11.2092-16.5376-2.5593-6.3654-3.833-13.4395-3.833-21.2043 0-7.7696 1.2978-14.8496 3.9052-21.2204 2.6194-6.4001 6.419-11.9079 11.3841-16.4958 4.9531-4.5767 10.9563-8.0872 17.983-10.532 6.9795-2.4282 14.8287-3.6356 23.539-3.6356ZM54.6255 80.1493c4.7897 0 8.6726 3.8829 8.6726 8.6727v6.272c0 4.7897-3.8829 8.6726-8.6726 8.6726H44.443c-4.7898 0-8.6727-3.8829-8.6727-8.6727v-6.272c0-4.7897 3.883-8.6726 8.6727-8.6726h10.1825ZM21.5775 2.0088c3.9758 0 7.268 3.088 7.5224 7.0557l.001.0187.1012 1.7477c.4 7.6625.6067 21.2265.6222 40.7323l-.004 7.7958c-.033 17.4943-.2314 29.5212-.5985 36.135l-.0645 1.08c-.2552 3.9678-3.5484 7.0543-7.5244 7.0543H7.538C3.375 103.6283 0 100.2533 0 96.09V9.547c0-4.1632 3.375-7.5381 7.5381-7.5381h14.0394Z"/>
</svg>